<?xml version="1.0" encoding="UTF-8" standalone="no"?>
<!-- Created with Inkscape (http://www.inkscape.org/) -->

<svg
   xmlns:dc="http://purl.org/dc/elements/1.1/"
   xmlns:cc="http://creativecommons.org/ns#"
   xmlns:rdf="http://www.w3.org/1999/02/22-rdf-syntax-ns#"
   xmlns:svg="http://www.w3.org/2000/svg"
   xmlns="http://www.w3.org/2000/svg"
   xmlns:sodipodi="http://sodipodi.sourceforge.net/DTD/sodipodi-0.dtd"
   xmlns:inkscape="http://www.inkscape.org/namespaces/inkscape"
   width="210mm"
   height="297mm"
   viewBox="0 0 210 297"
   version="1.1"
   id="svg8"
   inkscape:version="0.92.2 (5c3e80d, 2017-08-06)"
   sodipodi:docname="dolphin.svg">
  <defs
     id="defs2" />
  <sodipodi:namedview
     id="base"
     pagecolor="#ffffff"
     bordercolor="#666666"
     borderopacity="1.0"
     inkscape:pageopacity="0.0"
     inkscape:pageshadow="2"
     inkscape:zoom="1.979899"
     inkscape:cx="398.33024"
     inkscape:cy="730.43867"
     inkscape:document-units="mm"
     inkscape:current-layer="layer1"
     showgrid="false"
     inkscape:window-width="1260"
     inkscape:window-height="787"
     inkscape:window-x="470"
     inkscape:window-y="80"
     inkscape:window-maximized="0" />
  <metadata
     id="metadata5">
    <rdf:RDF>
      <cc:Work
         rdf:about="">
        <dc:format>image/svg+xml</dc:format>
        <dc:type
           rdf:resource="http://purl.org/dc/dcmitype/StillImage" />
        <dc:title></dc:title>
      </cc:Work>
    </rdf:RDF>
  </metadata>
  <g
     inkscape:label="Layer 1"
     inkscape:groupmode="layer"
     id="layer1">
    <g
       id="g2445">
      <path
         sodipodi:nodetypes="ccccccccccccccccccccccccc"
         inkscape:connector-curvature="0"
         d="m 79.201909,92.978318 c 4.258889,-0.49886 7.449994,-0.14755 11.254177,0.10627 v 0 c 1.469598,3.20341 4.85841,5.78174 9.327077,5.70619 0.878207,-0.28734 -1.50516,-2.31857 -2.35016,-4.7189 v 0 c 6.473567,1.74007 14.261547,3.82126 18.965407,7.471562 2.26016,1.9465 3.51128,3.87863 5.61013,5.71781 -0.77071,1.38289 -1.32564,2.18466 -0.23098,5.73288 1.50619,4.8821 -0.70986,6.13735 0.88149,5.0251 3.2001,-1.92335 3.53069,-4.84909 2.95763,-8.15311 2.42852,3.10248 8.02704,4.14556 10.62619,0.69534 0.80565,-0.76288 -3.43879,-0.006 -4.96739,-2.41456 -1.28984,-2.03247 -3.98928,-3.38677 -6.09213,-2.8155 -5.32968,-9.276362 -14.01168,-21.7909 -23.66119,-25.625948 0.4046,-3.00585 3.07091,-4.422317 4.94823,-6.664412 2.75661,-2.523279 -8.313367,-1.704429 -12.341175,1.134052 -2.911136,1.81618 -3.547163,3.034383 -4.30549,4.493064 -4.156374,-0.258956 -14.808224,1.47948 -16.810889,5.567327 -1.077369,1.744553 -1.062873,2.409135 -0.528137,4.400168 v 0 c -1.559569,0.93394 -6.402272,1.657218 -5.303612,3.324499 0.03764,0.270199 0.476224,0.190084 1.518601,0.07654 v 4e-6 c -0.666953,2.199854 9.710256,1.064764 10.508442,0.937164"
         style="fill:#00000a;fill-opacity:0.32863853;stroke:#000000;stroke-width:0.2612052px;stroke-linecap:butt;stroke-linejoin:miter;stroke-opacity:1"
         id="path95" />
    </g>
  </g>
</svg>
