<?xml version="1.0" encoding="UTF-8" standalone="no"?>
<!-- Created with Inkscape (http://www.inkscape.org/) -->

<svg
   xmlns:dc="http://purl.org/dc/elements/1.1/"
   xmlns:cc="http://creativecommons.org/ns#"
   xmlns:rdf="http://www.w3.org/1999/02/22-rdf-syntax-ns#"
   xmlns:svg="http://www.w3.org/2000/svg"
   xmlns="http://www.w3.org/2000/svg"
   xmlns:sodipodi="http://sodipodi.sourceforge.net/DTD/sodipodi-0.dtd"
   xmlns:inkscape="http://www.inkscape.org/namespaces/inkscape"
   width="70.114128mm"
   height="39.962593mm"
   viewBox="0 0 70.114129 39.962595"
   version="1.1"
   id="svg8"
   inkscape:version="0.92.2 (5c3e80d, 2017-08-06)"
   sodipodi:docname="wt-icons.svg">
  <defs
     id="defs2">
    <clipPath
       clipPathUnits="userSpaceOnUse"
       id="clipPath1118">
      <ellipse
         style="opacity:0.98999999;fill:#829ead;fill-opacity:0.9901962;stroke-width:0.28446761;stroke-miterlimit:4;stroke-dasharray:none"
         id="ellipse1120"
         ry="17.973875"
         rx="16.704346"
         cy="140.12717"
         cx="123.94157" />
    </clipPath>
    <clipPath
       clipPathUnits="userSpaceOnUse"
       id="clipPath1118-4">
      <ellipse
         style="opacity:0.98999999;fill:#829ead;fill-opacity:0.9901962;stroke-width:0.28446761;stroke-miterlimit:4;stroke-dasharray:none"
         id="ellipse1120-4"
         ry="17.973875"
         rx="16.704346"
         cy="140.12717"
         cx="123.94157" />
    </clipPath>
  </defs>
  <sodipodi:namedview
     id="base"
     pagecolor="#ffffff"
     bordercolor="#666666"
     borderopacity="1.0"
     inkscape:pageopacity="0.0"
     inkscape:pageshadow="2"
     inkscape:zoom="0.98994949"
     inkscape:cx="-143.20786"
     inkscape:cy="59.150515"
     inkscape:document-units="mm"
     inkscape:current-layer="layer1"
     showgrid="false"
     fit-margin-top="0"
     fit-margin-left="0"
     fit-margin-right="0"
     fit-margin-bottom="0"
     inkscape:window-width="1680"
     inkscape:window-height="1006"
     inkscape:window-x="0"
     inkscape:window-y="22"
     inkscape:window-maximized="0"
     inkscape:lockguides="true" />
  <metadata
     id="metadata5">
    <rdf:RDF>
      <cc:Work
         rdf:about="">
        <dc:format>image/svg+xml</dc:format>
        <dc:type
           rdf:resource="http://purl.org/dc/dcmitype/StillImage" />
        <dc:title></dc:title>
      </cc:Work>
    </rdf:RDF>
  </metadata>
  <g
     inkscape:label="Layer 1"
     inkscape:groupmode="layer"
     id="layer1"
     transform="translate(-138.97508,-142.68574)">
    <path
       style="opacity:0.98999999;fill:#52658f;fill-opacity:1;stroke-width:0.10658284;stroke-miterlimit:4;stroke-dasharray:none"
       d="m 176.52684,89.493525 c -16.22601,-3.64735 -6.90812,-24.63544 5.09952,-27.64969 4.59143,-1.08554 10.57453,2.44502 12.42217,8.44783 0.2544,0.82652 0.30663,1.21074 0.31205,2.29554 0.007,1.50224 -0.20322,2.20036 -0.90742,3.00641 l -0.40425,0.46272 -0.2011,-0.88311 c -0.84231,-3.69888 -3.19545,-5.47049 -6.14005,-4.62267 -1.91788,0.55219 -3.98705,2.4281 -4.94457,4.48274 -0.89876,1.92857 -1.13122,3.88349 -0.69039,5.80569 0.55859,2.43561 2.56664,5.26106 4.48194,6.30634 1.09149,0.59567 1.91631,0.753 3.50472,0.66846 1.38867,-0.0739 2.09751,-0.25415 4.97582,-1.2653 3.36815,-0.64913 6.37554,-1.51338 7.39923,0.93763 0.036,2.69782 -2.25314,2.06982 -2.25314,2.06982 -1.23925,-0.0169 -11.43377,-0.0449 -22.65453,-0.0623 z"
       id="path846"
       inkscape:connector-curvature="0"
       sodipodi:nodetypes="ccsccccccscsccccc" />
    <path
       style="opacity:0.98999999;fill:#000000;fill-opacity:0.9901962;stroke-width:0.2424366;stroke-miterlimit:4;stroke-dasharray:none"
       d="m -23.591224,188.24271 c -9.077172,-0.79214 -18.314075,-3.66295 -24.246763,-7.53585 l -2.038707,-1.33089 -1.8697,1.8113 c -2.25621,2.18572 -4.829833,3.58422 -9.128929,4.96061 -1.690478,0.54122 -3.605146,1.15455 -4.254817,1.36296 -0.649671,0.20841 -1.215303,0.34484 -1.256962,0.30318 -0.04166,-0.0417 0.265613,-0.793 0.682824,-1.66966 3.442742,-7.23397 4.187333,-20.87283 1.527011,-27.97063 -0.347681,-0.92762 -0.720254,-1.89247 -0.827942,-2.14412 -0.180631,-0.42209 -0.05011,-0.41716 1.685044,0.0637 2.890573,0.80101 4.461057,1.60285 7.656599,3.9092 1.61698,1.16704 3.681683,2.62522 4.588225,3.2404 l 1.648258,1.11851 1.970144,-0.89782 c 4.872958,-2.22068 12.213211,-4.09383 18.515581,-4.72496 3.930864,-0.39365 11.364028,-0.1865 14.704567,0.40978 10.9726679,1.95861 19.9024029,6.85421 26.596243,14.58101 l 1.38742,1.60152 -1.92888,1.98926 c -7.0446001,7.26513 -18.0777061,11.22379 -30.827133,11.06074 -1.932151,-0.0247 -3.994089,-0.0869 -4.582083,-0.13822 z"
       id="path879"
       inkscape:connector-curvature="0" />
    <path
       style="opacity:0.98999999;fill:#829ead;fill-opacity:0.9901962;stroke-width:0.23999999;stroke-miterlimit:4;stroke-dasharray:none"
       id="path1074"
       sodipodi:type="arc"
       sodipodi:cx="-46.781178"
       sodipodi:cy="80.181572"
       sodipodi:rx="5.2117558"
       sodipodi:ry="5.9467473"
       sodipodi:start="0"
       sodipodi:end="0.0010564618"
       d="m -41.569422,80.181572 a 5.2117558,5.9467473 0 0 1 -3e-6,0.0063 l -5.211753,-0.0063 z" />
    <circle
       style="opacity:0.98999999;fill:#d4f2ff;fill-opacity:0.9901962;stroke-width:0.23999999;stroke-miterlimit:4;stroke-dasharray:none"
       id="path1067-0"
       cx="-53.257595"
       cy="65.01403"
       r="22.45064"
       clip-path="none" />
    <path
       style="fill:none;stroke:#000000;stroke-width:0.2961486px;stroke-linecap:butt;stroke-linejoin:miter;stroke-opacity:1"
       d="m 78.927385,87.180886 c -0.21775,2.43768 -1.23219,5.16129 0.9475,4.89526 2.14443,-0.29883 0.60442,-8.79324 6.03542,-11.1581 0.47604,2.90542 5.2272,4.63326 5.92983,3.99783 0.87431,-0.67312 -0.76602,-0.5068 -1.60504,-5.22484 2.83382,-1.777 5.89212,-4.05066 12.433195,6.10543 0.74672,0.96457 -3.478565,6.87838 -0.28397,10.57363 0.99214,1.23027 1.48554,-3.62103 3.7683,-4.52319 2.14511,-0.84774 5.67195,2.25511 5.89582,0.89687 -0.49584,-4.61705 -6.97461,-6.28246 -7.05607,-7.72198 -0.74019,-9.68131 -4.01475,-13.31968 -7.445375,-15.16129 -2.27108,-3.07598 3.718025,-6.47735 1.98543,-7.12038 -6.38505,-0.0658 -7.06403,3.59154 -10.61076,6.05159 -7.50491,3.05487 -15.07946,10.09261 -9.99428,18.38917 z"
       id="path1748"
       inkscape:connector-curvature="0"
       sodipodi:nodetypes="cccccccscccccc" />
    <path
       style="opacity:0.98999999;fill:#000000;fill-opacity:1;stroke-width:0.06060915;stroke-miterlimit:4;stroke-dasharray:none"
       d="m 103.02907,83.419949 c -0.46966,-0.61745 -0.71042,-1.41781 -0.71196,-2.3668 -0.001,-0.75255 0.11783,-1.45024 0.50247,-2.9447 0.1641,-0.63755 0.29835,-1.24551 0.29835,-1.35104 0,-0.22818 -0.49292,-0.99979 -1.43481,-2.24607 -4.249244,-5.6224 -11.059914,-10.6635 -13.587504,-10.05714 -0.49705,0.11924 -0.52247,0.1737 -0.38466,0.82435 0.2018,0.95274 0.57283,1.96407 0.94552,2.57729 0.30349,0.49934 0.3379,0.58994 0.25634,0.67482 -0.13057,0.13587 -0.66,0.10334 -1.17931,-0.0725 -1.49224,-0.50519 -2.77158,-1.62776 -2.99553,-2.62848 -0.094,-0.42011 -0.12387,-0.42645 -0.63326,-0.1345 -1.62048,0.92874 -3.16729,2.91451 -6.24401,8.01597 -2.01404,3.33945 -2.82228,4.49836 -3.40716,4.88542 -0.32918,0.21784 -0.50976,0.183 -0.89003,-0.17172 -0.37114,-0.34619 -0.3613,-0.54092 0.0829,-1.64058 0.19074,-0.47217 0.40343,-1.09562 0.47266,-1.38543 l 0.12585,-0.52695 -0.2966,-0.44225 c -0.66362,-0.9895 -0.93667,-2.14044 -0.87587,-3.69187 0.0666,-1.7001 0.51882,-3.30645 1.47649,-5.24516 2.23551,-4.52555 6.40026,-8.30847 10.85663,-9.86126 0.78508,-0.27355 1.30089,-0.66788 2.2722,-1.73708 2.03058,-2.23518 2.78066,-2.85106 3.98533,-3.27225 0.81435,-0.28473 2.35792,-0.45972 2.41971,-0.27432 0.0358,0.1073 -0.15138,0.39312 -0.81647,1.2469 -1.03271,1.32571 -1.3836,2.25154 -1.1527,3.0415 0.0593,0.20284 0.20658,0.51855 0.32732,0.70158 0.35952,0.54501 1.53466,1.67772 2.99293,2.88486 2.10831,1.74524 3.02667,2.63156 4.01391,3.8739 2.429704,3.05752 4.026004,7.47264 4.706664,13.01787 0.0586,0.47775 0.13931,0.95279 0.17926,1.05566 0.10157,0.26154 0.47103,0.54371 1.5905,1.21473 1.79023,1.07308 2.67104,1.82958 3.12273,2.68204 0.21508,0.40593 0.42949,1.08249 0.37333,1.17807 -0.0576,0.0981 -0.24767,0.0454 -1.1811,-0.32735 -1.17095,-0.46761 -1.49749,-0.55636 -2.04769,-0.55654 -0.96506,-2.6e-4 -1.45708,0.45516 -2.29536,2.12487 -0.30568,0.60885 -0.58805,1.11775 -0.6275,1.1309 -0.0395,0.0131 -0.14727,-0.0754 -0.2396,-0.19678 z"
       id="path1757"
       inkscape:connector-curvature="0" />
    <path
       style="opacity:0.98999999;fill:#52658f;fill-opacity:1;stroke-width:0.08571428;stroke-miterlimit:4;stroke-dasharray:none"
       d="m 153.44422,90.992966 c -0.475,-0.68671 -0.71109,-1.32373 -0.82383,-2.22281 -0.17079,-1.36207 0.0568,-2.62644 0.99257,-5.51485 0.2817,-0.86947 0.51217,-1.74574 0.51217,-1.94728 0,-0.30991 -0.14504,-0.57624 -0.94019,-1.72645 -1.27856,-1.84945 -2.03843,-2.78658 -3.21387,-3.96357 -2.82746,-2.83118 -4.92369,-3.20654 -7.89252,-1.41328 -0.63994,0.38654 -0.80461,0.53099 -0.80461,0.70581 0,0.37696 0.53271,2.33825 0.79665,2.93306 0.13837,0.31183 0.42471,0.85422 0.63631,1.20531 0.31649,0.52511 0.36394,0.66339 0.26751,0.77957 -0.17809,0.2146 -0.86338,0.1731 -1.68381,-0.10195 -2.01319,-0.67495 -3.73561,-2.22658 -3.95205,-3.5602 -0.0316,-0.19489 -0.0787,-0.35435 -0.10471,-0.35435 -0.22284,0 -1.35694,0.69147 -1.81714,1.10792 -1.36442,1.23473 -2.18873,2.91816 -2.79137,5.7006 -0.14011,0.64692 -0.35705,1.64397 -0.48208,2.21566 -0.41509,1.89805 -0.92013,2.50224 -1.7685,2.11569 -0.51273,-0.23361 -0.57519,-1.068 -0.24375,-3.25592 l 0.20528,-1.35512 -0.4407,-0.85329 c -0.88725,-1.71787 -1.20295,-2.92376 -1.20136,-4.58886 0.003,-2.82989 1.22521,-5.33403 3.85691,-7.90037 1.77909,-1.73492 4.06051,-3.26626 6.56203,-4.40459 0.64273,-0.29247 1.33869,-0.66046 1.54657,-0.81774 0.20789,-0.15728 1.20716,-1.1009 2.22061,-2.09693 1.17885,-1.15859 2.10258,-1.9804 2.56421,-2.28129 1.19963,-0.78192 2.51023,-1.17519 4.35617,-1.30715 0.82482,-0.059 0.92657,-0.0487 0.98341,0.0994 0.0864,0.2252 -0.1297,0.59491 -0.96595,1.65244 -0.39042,0.49373 -0.86016,1.14274 -1.04385,1.44225 -0.74251,1.21061 -0.91334,2.36788 -0.48687,3.29813 0.2062,0.44976 0.31672,0.55653 1.02638,0.99147 2.8478,1.74537 4.67862,4.53761 5.76359,8.7902 0.33465,1.31168 0.73924,3.77576 0.89418,5.44583 0.0814,0.87742 0.26167,1.06182 2.45141,2.50774 1.94329,1.28318 3.34922,2.53443 3.87842,3.4517 0.34451,0.59714 0.70614,1.59716 0.70614,1.95273 0,0.24753 -0.0323,0.27918 -0.285,0.27918 -0.15675,0 -0.84774,-0.23025 -1.53553,-0.51166 -2.17188,-0.88862 -3.18721,-1.02843 -4.11417,-0.56651 -0.77547,0.38643 -1.256,1.0211 -2.17483,2.87248 -0.45461,0.91601 -0.88334,1.66385 -0.9619,1.67789 -0.0812,0.0145 -0.2912,-0.19074 -0.49193,-0.48094 z"
       id="path1816"
       inkscape:connector-curvature="0" />
    <path
       style="fill:none;stroke:#000000;stroke-width:0.26458332px;stroke-linecap:butt;stroke-linejoin:miter;stroke-opacity:1"
       d="m 57.332465,217.36044 c 32.307262,-1.27139 51.510065,10.61189 52.776185,-23.27099 -3.46324,-0.3216 -9.20435,-0.91586 -14.126223,0.0317 0.52624,9.03325 -20.01688,5.69432 -25.60553,5.56441 -0.47502,-5.49848 0.77087,-13.03934 2.71127,-21.61901 -6.911775,-0.055 -9.096004,0.38281 -15.429383,0.29918 0,12.14255 -0.290302,26.28325 -0.326319,38.99473 z"
       id="path2021"
       inkscape:connector-curvature="0"
       sodipodi:nodetypes="ccccccc" />
    <path
       style="opacity:0.98999999;fill:#333a56;fill-opacity:1;stroke-width:0.08571428;stroke-miterlimit:4;stroke-dasharray:none"
       d="m 183.79803,182.54898 c -0.92915,-0.0424 -4.11832,-0.22586 -7.08705,-0.40772 -8.35213,-0.51165 -9.67224,-0.56149 -15.03609,-0.56764 l -5.00818,-0.006 0.0635,-8.07924 c 0.0349,-4.44358 0.10929,-11.99129 0.1652,-16.77269 0.0559,-4.7814 0.10173,-9.83093 0.10182,-11.22117 l 1.7e-4,-2.52772 2.57496,-0.003 c 1.41623,-0.002 3.36163,-0.0429 4.3231,-0.0914 2.26872,-0.11444 8.12649,-0.23482 8.12649,-0.167 0,0.0288 -0.12616,0.60813 -0.28036,1.28735 -0.98522,4.33968 -1.84895,9.36079 -2.2293,12.95942 -0.17082,1.61623 -0.28558,5.604 -0.19049,6.61884 l 0.0667,0.71145 2.28531,0.16551 c 1.25691,0.091 3.13575,0.23487 4.17518,0.31967 2.83051,0.2309 9.67935,0.23104 11.29204,1.8e-4 5.27536,-0.75503 7.77096,-2.35557 8.12742,-5.21246 0.0515,-0.41323 0.12559,-0.78099 0.16452,-0.81725 0.21154,-0.19702 2.51209,-0.39322 5.12621,-0.43717 2.65768,-0.0447 3.94345,0.005 7.17071,0.27509 l 1.35932,0.11391 -0.0628,1.18634 c -0.49604,9.36421 -2.54306,15.43245 -6.34921,18.82169 -3.62626,3.22906 -8.90556,4.30593 -18.87914,3.85096 z"
       id="path2032"
       inkscape:connector-curvature="0" />
    <ellipse
       style="opacity:0.98999999;fill:#333a56;fill-opacity:1;stroke-width:0.23999999;stroke-miterlimit:4;stroke-dasharray:none"
       id="path2034"
       cx="151.40312"
       cy="177.28371"
       rx="1.2027128"
       ry="1.3363476" />
    <ellipse
       style="opacity:0.98999999;fill:#333a56;fill-opacity:1;stroke-width:0.1598189;stroke-miterlimit:4;stroke-dasharray:none"
       id="path2036"
       cx="145.92409"
       cy="173.27466"
       rx="1.8708866"
       ry="1.8708867" />
    <ellipse
       style="opacity:0.98999999;fill:#333a56;fill-opacity:1;stroke-width:0.18205786;stroke-miterlimit:4;stroke-dasharray:none"
       id="path2038"
       cx="143.6523"
       cy="163.3857"
       rx="4.6772165"
       ry="4.543582" />
  </g>
  <g
     inkscape:groupmode="layer"
     id="layer2"
     inkscape:label="Layer 2"
     transform="translate(-50.847636,-44.545007)">
    <circle
       transform="translate(-265.3266,-156.34906)"
       style="opacity:0.98999999;fill:#7a929e;fill-opacity:0.9901962;stroke-width:0.23999999;stroke-miterlimit:4;stroke-dasharray:none"
       id="path1067"
       cx="123.83476"
       cy="123.08873"
       r="22.45064"
       clip-path="url(#clipPath1118)" />
    <circle
       style="opacity:0.98999999;fill:#829ead;fill-opacity:0.9901962;stroke-width:0.23999999;stroke-miterlimit:4;stroke-dasharray:none"
       id="path1078"
       cx="-141.38503"
       cy="-45.020187"
       r="8.0180855" />
  </g>
</svg>
