<?xml version="1.0" encoding="UTF-8" standalone="no"?>
<!-- Created with Inkscape (http://www.inkscape.org/) -->

<svg
   xmlns:dc="http://purl.org/dc/elements/1.1/"
   xmlns:cc="http://creativecommons.org/ns#"
   xmlns:rdf="http://www.w3.org/1999/02/22-rdf-syntax-ns#"
   xmlns:svg="http://www.w3.org/2000/svg"
   xmlns="http://www.w3.org/2000/svg"
   xmlns:sodipodi="http://sodipodi.sourceforge.net/DTD/sodipodi-0.dtd"
   xmlns:inkscape="http://www.inkscape.org/namespaces/inkscape"
   width="210mm"
   height="297mm"
   viewBox="0 0 210 297"
   version="1.1"
   id="svg8"
   inkscape:export-filename="/Users/elisjones/Library/Mobile Documents/com~apple~CloudDocs/Documents/cs/17-18/wt/site/public/img/logo.png"
   inkscape:export-xdpi="96"
   inkscape:export-ydpi="96"
   inkscape:version="0.92.2 (5c3e80d, 2017-08-06)"
   sodipodi:docname="logo.svg">
  <defs
     id="defs2">
    <inkscape:perspective
       sodipodi:type="inkscape:persp3d"
       inkscape:vp_x="0 : 148.5 : 1"
       inkscape:vp_y="0 : 1000 : 0"
       inkscape:vp_z="210 : 148.5 : 1"
       inkscape:persp3d-origin="105 : 99 : 1"
       id="perspective3746" />
  </defs>
  <sodipodi:namedview
     id="base"
     pagecolor="#ffffff"
     bordercolor="#666666"
     borderopacity="1.0"
     inkscape:pageopacity="0"
     inkscape:pageshadow="2"
     inkscape:zoom="1.164921"
     inkscape:cx="240.46568"
     inkscape:cy="974.68464"
     inkscape:document-units="mm"
     inkscape:current-layer="layer1"
     showgrid="false"
     inkscape:window-width="1680"
     inkscape:window-height="1006"
     inkscape:window-x="0"
     inkscape:window-y="22"
     inkscape:window-maximized="0"
     inkscape:pagecheckerboard="true" />
  <metadata
     id="metadata5">
    <rdf:RDF>
      <cc:Work
         rdf:about="">
        <dc:format>image/svg+xml</dc:format>
        <dc:type
           rdf:resource="http://purl.org/dc/dcmitype/StillImage" />
        <dc:title></dc:title>
      </cc:Work>
    </rdf:RDF>
  </metadata>
  <g
     inkscape:label="Layer 1"
     inkscape:groupmode="layer"
     id="layer1">
    <flowRoot
       xml:space="preserve"
       id="flowRoot3713"
       style="font-style:normal;font-weight:normal;font-size:40px;line-height:1.25;font-family:sans-serif;letter-spacing:0px;word-spacing:0px;fill:#c4e2e0;fill-opacity:1;stroke:none;"
       transform="matrix(1.0555034,0,0,1.0555034,-72.001532,-81.246222)"
       inkscape:export-xdpi="96"
       inkscape:export-ydpi="96"><flowRegion
         id="flowRegion3715"
         style="fill:#c4e2e0;fill-opacity:1;"><rect
           id="rect3717"
           width="629.22723"
           height="191.42929"
           x="88.418015"
           y="95.840614"
           style="fill:#c4e2e0;fill-opacity:1;" /></flowRegion><flowPara
         id="flowPara3725"
         style="-inkscape-font-specification:'.Helvetica Neue DeskInterface, Normal';font-family:'.Helvetica Neue DeskInterface';font-weight:normal;font-style:normal;font-stretch:normal;font-variant:normal;font-size:40.00029233000000062px;text-anchor:start;text-align:start;writing-mode:lr;font-variant-ligatures:normal;font-variant-caps:normal;font-variant-numeric:normal;font-feature-settings:normal;fill:#c4e2e0;fill-opacity:1;">SeaM<flowSpan
   style="fill:#52658f;fill-opacity:1"
   id="flowSpan4650">o</flowSpan>r</flowPara></flowRoot>    <path
       style="fill:#52658f;stroke-width:0.15226124;fill-opacity:1"
       d="m 142.29406,63.060562 a 6.9273764,6.9273764 0 0 0 -6.92729,6.927293 6.9273764,6.9273764 0 0 0 6.92729,6.927588 6.9273764,6.9273764 0 0 0 6.92759,-6.927588 6.9273764,6.9273764 0 0 0 -6.92759,-6.927293 z m 0,1.829812 a 5.097503,5.097503 0 0 1 5.09748,5.097481 5.097503,5.097503 0 0 1 -5.09748,5.097778 5.097503,5.097503 0 0 1 -5.09748,-5.097778 5.097503,5.097503 0 0 1 5.09748,-5.097481 z"
       id="path3731"
       inkscape:connector-curvature="0"
       inkscape:export-xdpi="96"
       inkscape:export-ydpi="96" />
    <path
       inkscape:connector-curvature="0"
       id="path3740"
       d="m 150.92488,76.915221 a 4.4290169,4.4290169 0 0 0 -4.42896,4.428964 4.4290169,4.4290169 0 0 0 4.42896,4.429152 4.4290169,4.4290169 0 0 0 4.42915,-4.429152 4.4290169,4.4290169 0 0 0 -4.42915,-4.428964 z m 0,1.16989 a 3.2590877,3.2590877 0 0 1 3.25907,3.259074 3.2590877,3.2590877 0 0 1 -3.25907,3.259263 3.2590877,3.2590877 0 0 1 -3.25907,-3.259263 3.2590877,3.2590877 0 0 1 3.25907,-3.259074 z"
       style="stroke-width:0.0973482;fill:#52658f;fill-opacity:1"
       inkscape:export-xdpi="96"
       inkscape:export-ydpi="96" />
    <path
       style="stroke-width:0.05990748;fill:#52658f;fill-opacity:1"
       d="m 148.08585,88.271499 a 2.7255898,2.7255898 0 0 0 -2.72555,2.725557 2.7255898,2.7255898 0 0 0 2.72555,2.725671 2.7255898,2.7255898 0 0 0 2.72568,-2.725671 2.7255898,2.7255898 0 0 0 -2.72568,-2.725557 z m 0,0.719943 a 2.0056226,2.0056226 0 0 1 2.00562,2.005614 2.0056226,2.0056226 0 0 1 -2.00562,2.005731 2.0056226,2.0056226 0 0 1 -2.00561,-2.005731 2.0056226,2.0056226 0 0 1 2.00561,-2.005614 z"
       id="path3742"
       inkscape:connector-curvature="0"
       inkscape:export-xdpi="96"
       inkscape:export-ydpi="96" />
    <path
       inkscape:connector-curvature="0"
       id="path3744"
       d="m 152.17414,95.993768 a 1.5899725,1.5899725 0 0 0 -1.58995,1.589954 1.5899725,1.5899725 0 0 0 1.58995,1.59002 1.5899725,1.5899725 0 0 0 1.59002,-1.59002 1.5899725,1.5899725 0 0 0 -1.59002,-1.589954 z m 0,0.419977 a 1.1699797,1.1699797 0 0 1 1.16998,1.169977 1.1699797,1.1699797 0 0 1 -1.16998,1.17004 1.1699797,1.1699797 0 0 1 -1.16997,-1.17004 1.1699797,1.1699797 0 0 1 1.16997,-1.169977 z"
       style="stroke-width:0.03494702;fill:#52658f;fill-opacity:1"
       inkscape:export-xdpi="96"
       inkscape:export-ydpi="96" />
    <path
       style="fill:#52658f;stroke-width:0.09912872;fill-opacity:1"
       d="m 144.78081,23.87673 -7.68562,7.259855 1.78717,1.688125 5.79106,-5.133571 5.40646,4.79252 1.90621,-1.800713 z"
       id="rect3762"
       inkscape:connector-curvature="0"
       inkscape:export-xdpi="96"
       inkscape:export-ydpi="96" />
  </g>
</svg>
